<?xml version="1.0" standalone="no"?>
<!DOCTYPE svg PUBLIC "-//W3C//DTD SVG 20010904//EN"
 "http://www.w3.org/TR/2001/REC-SVG-20010904/DTD/svg10.dtd">
<svg version="1.0" xmlns="http://www.w3.org/2000/svg"
 width="167.000000pt" height="167.000000pt" viewBox="0 0 167.000000 167.000000"
 preserveAspectRatio="xMidYMid meet">
<metadata>
Created by potrace 1.11, written by Peter Selinger 2001-2013
</metadata>
<g transform="translate(0.000000,167.000000) scale(0.100000,-0.100000)"
fill="#000000" stroke="none">
<path d="M547 1595 c-18 -17 -15 -71 9 -200 2 -11 7 -38 10 -60 3 -22 11 -68
17 -103 l12 -64 103 -44 c117 -50 112 -48 136 -31 16 11 12 22 -44 142 -85
179 -169 347 -182 362 -14 17 -43 16 -61 -2z"/>
<path d="M1415 1322 c-50 -22 -165 -79 -553 -276 -12 -6 -20 -15 -18 -21 2 -5
14 -42 26 -82 23 -69 25 -72 81 -103 32 -18 61 -32 66 -31 4 0 91 70 193 154
102 83 193 159 204 167 10 8 23 20 30 25 6 6 32 27 58 48 25 21 51 52 57 68 9
27 7 34 -14 55 -30 30 -54 29 -130 -4z"/>
<path d="M227 1216 c-10 -8 -20 -30 -24 -49 -7 -48 29 -86 232 -237 55 -41
105 -78 110 -82 41 -34 121 -88 130 -88 6 0 45 24 86 53 l76 53 -25 80 -25 81
-61 26 c-429 184 -458 194 -499 163z"/>
<path d="M788 767 c-42 -29 -77 -55 -77 -59 -1 -6 56 -144 106 -258 9 -19 51
-108 95 -197 60 -125 85 -166 106 -177 34 -17 62 -13 83 13 17 21 17 21 -16
191 -3 14 -14 72 -25 130 -51 276 -62 324 -72 337 -10 12 -112 74 -119 72 -2
0 -39 -24 -81 -52z"/>
<path d="M460 759 c-25 -23 -96 -89 -159 -148 -62 -58 -118 -108 -123 -109
-17 -7 -40 -65 -34 -88 6 -22 15 -27 56 -27 19 0 128 48 332 147 l157 76 -20
48 c-11 27 -32 56 -47 66 -15 9 -45 30 -67 46 -22 16 -42 29 -45 29 -3 0 -25
-18 -50 -40z"/>
<path d="M1071 776 l-22 -24 18 -88 19 -89 75 -22 c118 -37 147 -42 162 -29
41 33 20 65 -128 191 -107 92 -99 88 -124 61z"/>
</g>
</svg>
